<svg width="612" height="431" viewBox="0 0 612 431" fill="none" xmlns="http://www.w3.org/2000/svg">
<g opacity="0.6" filter="url(#filter0_d_4_6)">
<path d="M350.251 88.5496C315.183 87.3301 281.758 76.0018 249.888 63.6102C218.019 51.2187 186.431 37.4866 152.185 30.9205C130.166 26.6925 104.985 26.0979 87.2475 37.9099C70.1746 49.2735 64.6599 68.8914 61.6935 87.0933C59.4625 100.79 58.1682 115.202 64.2671 128.027C68.5126 136.927 76.0469 144.41 81.2594 152.936C99.3899 182.603 86.5726 219.188 66.9212 248.179C57.7048 261.785 47.0129 274.731 39.9017 289.198C32.7905 303.666 29.4968 320.24 35.7216 334.995C41.891 349.609 56.5868 360.605 72.5114 368.33C104.854 384.007 142.964 388.492 180.126 391.062C262.388 396.691 345.094 394.252 427.572 391.813C458.097 390.906 488.758 389.994 518.784 385.262C535.459 382.637 552.678 378.474 564.785 368.426C580.151 355.666 583.963 334.068 573.664 318.068C556.39 291.239 508.631 284.572 496.554 255.778C489.911 239.929 496.735 222.272 506.395 207.572C527.109 176.041 561.839 148.376 563.667 112.33C564.926 87.572 548.231 62.7838 522.415 51.0675C495.36 38.7767 457.84 40.3288 437.882 60.6421C417.329 81.5702 381.209 89.623 350.251 88.5496Z" fill="#587EEC"/>
</g>
<path d="M154.436 384.36C154.436 384.36 126.737 363.407 121.504 336.754C119.382 325.56 113.69 315.356 105.282 307.672C101.26 304.058 96.9159 300.819 92.304 297.997" stroke="#9AB1F3" stroke-width="2" stroke-miterlimit="10"/>
<path d="M88.9146 281.206C91.342 284.492 92.4399 298.415 92.4399 298.415C92.4399 298.415 79.4615 293.301 77.029 290.02C75.8609 288.443 75.3668 286.466 75.6554 284.525C75.9439 282.583 76.9915 280.836 78.5676 279.667C80.1437 278.498 82.1193 278.004 84.0597 278.292C86.0002 278.581 87.7465 279.629 88.9146 281.206Z" fill="#587EEC"/>
<path d="M112.192 292.131C112.444 296.208 105.811 308.494 105.811 308.494C105.811 308.494 97.6878 297.135 97.431 293.059C97.3333 291.115 98.0049 289.211 99.3003 287.76C100.596 286.308 102.41 285.426 104.351 285.304C106.293 285.182 108.203 285.83 109.67 287.108C111.137 288.386 112.041 290.191 112.187 292.131H112.192Z" fill="#587EEC"/>
<path d="M134.755 323.536C132.921 327.185 120.99 334.441 120.99 334.441C120.99 334.441 119.716 320.533 121.549 316.884C122.452 315.169 123.991 313.876 125.837 313.284C127.682 312.693 129.686 312.85 131.416 313.722C133.147 314.594 134.467 316.111 135.091 317.946C135.715 319.782 135.594 321.789 134.755 323.536Z" fill="#587EEC"/>
<path d="M146.484 351.131C145.29 355.037 134.759 364.203 134.759 364.203C134.759 364.203 131.148 350.713 132.342 346.802C132.916 344.926 134.211 343.354 135.943 342.434C137.674 341.513 139.701 341.318 141.576 341.892C143.451 342.466 145.022 343.762 145.942 345.494C146.863 347.227 147.058 349.255 146.484 351.131Z" fill="#587EEC"/>
<path d="M93.8047 318.371C97.8337 318.915 110.57 313.16 110.57 313.16C110.57 313.16 99.8231 304.251 95.7739 303.707C93.8305 303.445 91.8629 303.967 90.304 305.158C88.7452 306.348 87.7227 308.109 87.4616 310.054C87.2004 311.998 87.722 313.967 88.9116 315.527C90.1012 317.087 91.8613 318.11 93.8047 318.371Z" fill="#587EEC"/>
<path d="M107.931 350.476C111.96 349.786 122.37 340.488 122.37 340.488C122.37 340.488 109.447 335.207 105.423 335.897C104.46 336.055 103.537 336.403 102.709 336.92C101.88 337.436 101.162 338.112 100.596 338.908C100.03 339.704 99.6269 340.604 99.4103 341.556C99.1937 342.509 99.1678 343.495 99.3341 344.458C99.5003 345.42 99.8555 346.34 100.379 347.165C100.903 347.989 101.584 348.702 102.384 349.261C103.185 349.821 104.088 350.216 105.042 350.425C105.995 350.633 106.981 350.651 107.941 350.476H107.931Z" fill="#587EEC"/>
<path d="M125.936 379.8C130.02 379.8 141.856 372.397 141.856 372.397C141.856 372.397 130.015 365.004 125.931 365.004C123.97 365.004 122.09 365.784 120.703 367.171C119.317 368.558 118.538 370.44 118.538 372.402C118.538 374.364 119.317 376.245 120.703 377.633C122.09 379.02 123.97 379.8 125.931 379.8H125.936Z" fill="#587EEC"/>
<path d="M423.523 203.133C423.523 203.133 440.596 172.872 466.331 164.154C477.138 160.563 486.489 153.563 492.983 144.203C496.029 139.729 498.657 134.984 500.835 130.028" stroke="#9AB1F3" stroke-width="2" stroke-miterlimit="10"/>
<path d="M516.991 124.485C514.06 127.327 500.417 130.27 500.417 130.27C500.417 130.27 503.766 116.714 506.697 113.867C508.112 112.542 509.99 111.825 511.928 111.872C513.865 111.918 515.707 112.724 517.056 114.116C518.406 115.508 519.155 117.375 519.143 119.314C519.131 121.253 518.358 123.11 516.991 124.485Z" fill="#587EEC"/>
<path d="M509.275 148.991C505.246 149.787 492.218 144.838 492.218 144.838C492.218 144.838 502.391 135.264 506.395 134.483C507.356 134.269 508.35 134.25 509.319 134.426C510.288 134.603 511.212 134.971 512.037 135.509C512.861 136.048 513.57 136.746 514.122 137.562C514.673 138.378 515.056 139.297 515.248 140.263C515.44 141.229 515.437 142.225 515.239 143.19C515.041 144.155 514.653 145.071 514.097 145.884C513.54 146.697 512.827 147.391 511.999 147.924C511.171 148.458 510.245 148.82 509.275 148.991Z" fill="#587EEC"/>
<path d="M481.193 175.538C477.336 174.202 468.567 163.338 468.567 163.338C468.567 163.338 482.165 160.223 486.033 161.559C486.962 161.867 487.821 162.357 488.56 163.001C489.298 163.644 489.902 164.427 490.335 165.306C490.768 166.184 491.023 167.14 491.084 168.118C491.145 169.096 491.012 170.076 490.691 171.002C490.371 171.927 489.87 172.78 489.217 173.511C488.565 174.241 487.773 174.834 486.89 175.256C486.006 175.678 485.048 175.921 484.07 175.969C483.092 176.017 482.114 175.871 481.193 175.538Z" fill="#587EEC"/>
<path d="M455.388 190.837C451.359 190.172 440.903 180.925 440.903 180.925C440.903 180.925 453.791 175.553 457.815 176.218C459.752 176.537 461.483 177.612 462.627 179.208C463.771 180.804 464.235 182.789 463.916 184.727C463.598 186.665 462.523 188.397 460.928 189.541C459.334 190.686 457.35 191.151 455.413 190.832L455.388 190.837Z" fill="#587EEC"/>
<path d="M480.841 134.241C480.836 138.328 488.244 150.185 488.244 150.185C488.244 150.185 495.642 138.343 495.642 134.261C495.668 133.274 495.496 132.291 495.136 131.371C494.776 130.451 494.236 129.613 493.547 128.906C492.858 128.198 492.035 127.636 491.126 127.252C490.216 126.868 489.239 126.67 488.252 126.67C487.265 126.67 486.287 126.868 485.378 127.252C484.468 127.636 483.645 128.198 482.956 128.906C482.267 129.613 481.727 130.451 481.367 131.371C481.007 132.291 480.835 133.274 480.861 134.261L480.841 134.241Z" fill="#587EEC"/>
<path d="M450.91 152.513C452.129 156.414 462.725 165.509 462.725 165.509C462.725 165.509 466.251 151.994 465.022 148.094C464.385 146.287 463.071 144.798 461.359 143.94C459.646 143.082 457.668 142.923 455.84 143.496C454.013 144.069 452.478 145.329 451.561 147.011C450.643 148.693 450.414 150.665 450.92 152.513H450.91Z" fill="#587EEC"/>
<path d="M424.284 174.268C424.828 178.299 433.732 189.068 433.732 189.068C433.732 189.068 439.478 176.344 438.934 172.297C438.826 171.317 438.523 170.368 438.044 169.506C437.564 168.645 436.917 167.888 436.14 167.28C435.364 166.672 434.474 166.226 433.522 165.968C432.571 165.709 431.577 165.644 430.6 165.775C429.623 165.907 428.683 166.232 427.833 166.733C426.984 167.234 426.243 167.899 425.654 168.69C425.066 169.482 424.641 170.383 424.406 171.341C424.171 172.298 424.129 173.294 424.284 174.268Z" fill="#587EEC"/>
<path opacity="0.25" d="M516.991 124.485C514.06 127.327 500.417 130.27 500.417 130.27C500.417 130.27 503.766 116.714 506.697 113.867C508.112 112.542 509.99 111.825 511.928 111.872C513.865 111.918 515.707 112.724 517.056 114.116C518.406 115.508 519.155 117.375 519.143 119.314C519.131 121.253 518.358 123.11 516.991 124.485Z" fill="black"/>
<path opacity="0.25" d="M509.275 148.991C505.246 149.787 492.218 144.838 492.218 144.838C492.218 144.838 502.391 135.264 506.395 134.483C507.356 134.269 508.35 134.25 509.319 134.426C510.288 134.603 511.212 134.971 512.037 135.509C512.861 136.048 513.57 136.746 514.122 137.562C514.673 138.378 515.056 139.297 515.248 140.263C515.44 141.229 515.437 142.225 515.239 143.19C515.041 144.155 514.653 145.071 514.097 145.884C513.54 146.697 512.827 147.391 511.999 147.924C511.171 148.458 510.245 148.82 509.275 148.991Z" fill="black"/>
<path opacity="0.25" d="M481.193 175.538C477.336 174.202 468.567 163.338 468.567 163.338C468.567 163.338 482.165 160.223 486.033 161.559C486.962 161.867 487.821 162.357 488.56 163.001C489.298 163.644 489.902 164.427 490.335 165.306C490.768 166.184 491.023 167.14 491.084 168.118C491.145 169.096 491.012 170.076 490.691 171.002C490.371 171.927 489.87 172.78 489.217 173.511C488.565 174.241 487.773 174.834 486.89 175.256C486.006 175.678 485.048 175.921 484.07 175.969C483.092 176.017 482.114 175.871 481.193 175.538Z" fill="black"/>
<path opacity="0.25" d="M455.388 190.837C451.359 190.172 440.903 180.925 440.903 180.925C440.903 180.925 453.791 175.553 457.815 176.218C459.752 176.537 461.483 177.612 462.627 179.208C463.771 180.804 464.235 182.789 463.916 184.727C463.598 186.665 462.523 188.397 460.928 189.541C459.334 190.686 457.35 191.151 455.413 190.832L455.388 190.837Z" fill="black"/>
<path opacity="0.25" d="M480.841 134.241C480.836 138.328 488.244 150.185 488.244 150.185C488.244 150.185 495.642 138.343 495.642 134.261C495.668 133.274 495.496 132.291 495.136 131.371C494.776 130.451 494.236 129.613 493.547 128.906C492.858 128.198 492.035 127.636 491.126 127.252C490.216 126.868 489.239 126.67 488.252 126.67C487.265 126.67 486.287 126.868 485.378 127.252C484.468 127.636 483.645 128.198 482.956 128.906C482.267 129.613 481.727 130.451 481.367 131.371C481.007 132.291 480.835 133.274 480.861 134.261L480.841 134.241Z" fill="black"/>
<path opacity="0.25" d="M450.91 152.513C452.129 156.414 462.725 165.509 462.725 165.509C462.725 165.509 466.251 151.994 465.022 148.094C464.385 146.287 463.071 144.798 461.359 143.94C459.646 143.082 457.668 142.923 455.84 143.496C454.013 144.069 452.478 145.329 451.561 147.011C450.643 148.693 450.414 150.665 450.92 152.513H450.91Z" fill="black"/>
<path opacity="0.25" d="M424.284 174.268C424.828 178.299 433.732 189.068 433.732 189.068C433.732 189.068 439.478 176.344 438.934 172.297C438.826 171.317 438.523 170.368 438.044 169.506C437.564 168.645 436.917 167.888 436.14 167.28C435.364 166.672 434.474 166.226 433.522 165.968C432.571 165.709 431.577 165.644 430.6 165.775C429.623 165.907 428.683 166.232 427.833 166.733C426.984 167.234 426.243 167.899 425.654 168.69C425.066 169.482 424.641 170.383 424.406 171.341C424.171 172.298 424.129 173.294 424.284 174.268Z" fill="black"/>
<path d="M424.505 202.533C424.505 202.533 427.859 167.943 447.833 149.55C456.258 141.884 461.972 131.693 464.12 120.504C465.098 115.184 465.585 109.787 465.576 104.378" stroke="#9AB1F3" stroke-width="2" stroke-miterlimit="10"/>
<path d="M478.096 92.7071C476.585 96.4966 465.284 104.721 465.284 104.721C465.284 104.721 462.856 90.9685 464.382 87.179C465.117 85.3594 466.544 83.9063 468.349 83.1394C470.155 82.3724 472.191 82.3546 474.009 83.0896C475.828 83.8247 477.28 85.2525 478.046 87.059C478.813 88.8654 478.831 90.9026 478.096 92.7222V92.7071Z" fill="#587EEC"/>
<path d="M480.972 118.266C477.633 120.615 463.697 121.386 463.697 121.386C463.697 121.386 469.126 108.515 472.465 106.167C473.257 105.574 474.16 105.146 475.12 104.908C476.08 104.671 477.078 104.628 478.055 104.784C479.032 104.939 479.968 105.289 480.807 105.812C481.647 106.336 482.372 107.023 482.942 107.832C483.511 108.641 483.912 109.557 484.121 110.524C484.331 111.491 484.344 112.491 484.16 113.463C483.976 114.436 483.6 115.362 483.052 116.186C482.504 117.01 481.797 117.716 480.972 118.261V118.266Z" fill="#587EEC"/>
<path d="M466.034 153.934C461.965 154.277 449.546 147.887 449.546 147.887C449.546 147.887 460.726 139.522 464.795 139.179C466.75 139.015 468.689 139.634 470.187 140.9C471.685 142.167 472.619 143.977 472.783 145.932C472.947 147.887 472.329 149.828 471.063 151.326C469.797 152.825 467.988 153.76 466.034 153.924V153.934Z" fill="#587EEC"/>
<path d="M448.654 178.37C444.701 179.378 431.385 175.21 431.385 175.21C431.385 175.21 440.989 165.076 444.942 164.048C446.84 163.556 448.856 163.838 450.546 164.832C452.237 165.827 453.463 167.453 453.955 169.352C454.447 171.251 454.165 173.268 453.171 174.959C452.177 176.65 450.552 177.877 448.654 178.37Z" fill="#587EEC"/>
<path d="M449.007 116.311C450.659 120.045 462.212 127.901 462.212 127.901C462.212 127.901 464.176 114.074 462.524 110.339C461.701 108.592 460.228 107.237 458.419 106.562C456.61 105.888 454.609 105.948 452.844 106.729C451.079 107.511 449.69 108.953 448.973 110.746C448.256 112.539 448.268 114.542 449.007 116.326V116.311Z" fill="#587EEC"/>
<path d="M429.043 145.146C431.737 148.215 445.104 152.236 445.104 152.236C445.104 152.236 442.847 138.454 440.153 135.385C439.517 134.639 438.739 134.028 437.865 133.585C436.991 133.143 436.037 132.879 435.06 132.809C434.083 132.738 433.102 132.863 432.173 133.175C431.245 133.488 430.388 133.982 429.652 134.629C428.915 135.275 428.315 136.062 427.886 136.943C427.456 137.824 427.205 138.781 427.149 139.76C427.092 140.738 427.23 141.718 427.556 142.643C427.881 143.568 428.386 144.418 429.043 145.146Z" fill="#587EEC"/>
<path d="M413.486 175.845C415.621 179.322 428.116 185.546 428.116 185.546C428.116 185.546 428.222 171.582 426.102 168.1C425.046 166.492 423.407 165.359 421.53 164.94C419.654 164.522 417.688 164.852 416.05 165.859C414.413 166.867 413.232 168.473 412.758 170.337C412.284 172.201 412.554 174.177 413.511 175.845H413.486Z" fill="#587EEC"/>
<path d="M398.82 67.0723C399.656 64.0034 400.664 60.9194 401.369 57.8101C400.523 60.9194 399.51 64.0135 398.82 67.0723Z" fill="url(#paint0_linear_4_6)"/>
<path d="M395.073 96.6327C395.003 96.5117 394.953 96.3908 394.897 96.2799C394.897 96.2295 394.847 96.1892 394.827 96.1388C394.717 96.1906 394.604 96.2361 394.489 96.2749C394.268 96.3606 394.041 96.4412 393.809 96.5067C393.578 96.5722 393.482 96.6075 393.306 96.6478C393.16 96.6982 393.01 96.7369 392.857 96.7637L392.898 96.8544C393.084 96.8141 393.265 96.7788 393.452 96.7284L393.502 97.3533C393.714 97.3533 393.91 97.3231 394.101 97.3231C394.192 97.3181 394.283 97.3181 394.373 97.3231C394.766 97.3231 395.109 97.3231 395.381 97.3231C395.275 97.0963 395.164 96.8594 395.073 96.6327ZM497.309 259.467C494.942 256.277 490.218 222.04 490.218 222.04C490.218 222.04 480.926 197.695 483.46 187.98C485.993 178.264 476.54 153.405 476.54 153.405C476.54 153.405 470.295 150.689 469.957 146.658C469.957 146.658 444.459 138.595 443.265 132.548C442.298 127.589 426.484 124.031 420.804 122.907C419.071 115.913 417.329 109.387 416.044 105.824C415.697 104.716 415.369 103.758 415.067 103.002C412.897 97.4591 406.188 96.9552 401.323 97.3986C401.113 96.4539 400.721 95.5589 400.17 94.7631C400.09 94.4895 399.93 94.2458 399.712 94.0626C399.607 93.9736 399.496 93.8927 399.379 93.8208C399.291 93.6574 399.175 93.5108 399.037 93.3874C398.899 93.2628 398.747 93.1546 398.584 93.0649C398.467 93.0015 398.345 92.946 398.221 92.8986C397.929 92.7874 397.627 92.7047 397.32 92.6516C396.961 92.5778 396.597 92.5307 396.232 92.5106C397.121 92.1215 397.913 91.5417 398.553 90.8123C398.989 90.3002 399.313 89.703 399.505 89.0586C399.665 88.5228 399.736 87.9646 399.717 87.4058C399.586 87.636 399.434 87.8537 399.264 88.0558C399.475 85.8234 398.297 83.5557 397.622 81.3334C396.804 78.4403 396.652 75.3993 397.178 72.4391C397.853 67.9743 399.525 63.4591 400.659 58.9137C400.661 58.8886 400.661 58.8632 400.659 58.8381C401.253 56.5808 401.621 54.2697 401.756 51.9393C401.953 47.2377 400.749 42.5461 398.815 38.2628C397.098 34.4682 394.565 30.7341 390.687 29.1921C387.806 28.028 384.578 28.2144 381.475 28.0229C374.515 27.5896 367.878 25.1405 361.26 22.9131C354.642 20.6858 347.833 18.66 340.868 19.048C333.903 19.436 326.736 22.7972 323.559 28.9653C322.551 30.8903 321.972 33.032 320.768 34.8411C318.512 38.2527 314.473 39.961 311.104 42.3143C307.735 44.6677 304.768 48.0087 303.55 51.9948C302.884 54.1423 302.79 56.4265 303.278 58.6214C303.387 59.1171 303.529 59.6052 303.701 60.0828C304.179 61.4143 304.924 62.6337 305.891 63.6657C306.621 64.4285 307.459 65.0789 308.379 65.5958C309.535 66.2366 310.771 66.718 312.056 67.0269C312.01 67.1781 311.965 67.3394 311.915 67.4956C311.834 67.7526 311.764 67.9995 311.688 68.2767C311.522 68.8965 311.366 69.5264 311.235 70.1614C311.23 70.2066 311.23 70.2522 311.235 70.2974C310.616 73.1637 310.306 76.088 310.308 79.0204C310.307 80.4072 310.378 81.7932 310.52 83.1728C312.534 103.622 329.406 119.753 350.251 120.801C350.966 120.836 351.686 120.856 352.416 120.856C352.749 120.856 353.076 120.856 353.424 120.856C353.751 121.29 354.073 121.733 354.38 122.167C354.688 122.6 354.97 123.044 355.237 123.477L354.506 122.721L353.776 122.051C353.578 122.323 353.357 122.577 353.116 122.812C352.64 122.644 352.154 122.506 351.661 122.398C349.571 121.935 346.388 121.764 342.198 123.028C338.345 124.182 333.636 126.556 328.126 131.066L301.278 147.192L286.754 156.031L281.521 168.83C281.521 168.83 277.588 184.039 273.211 201.465C273.04 201.515 272.874 201.565 272.708 201.626C272.353 201.586 271.997 201.565 271.64 201.565C269.101 201.56 266.658 202.538 264.825 204.297C262.992 206.055 261.911 208.455 261.809 210.994C253.106 221.576 252.613 232.159 254.658 237.017C254.843 237.472 255.076 237.906 255.353 238.312C256.692 240.247 259.195 245.236 261.734 250.552C261.668 250.991 261.628 251.359 261.608 251.636C261.603 251.726 261.603 251.817 261.608 251.908C261.608 251.908 263.118 274.741 258.082 281.287C256.979 282.713 257.145 284.588 258.082 286.664C261.457 294.132 274.798 304.105 274.798 304.105C274.798 304.105 290.798 304.019 299.712 303.046C299.687 303.943 299.667 304.835 299.646 305.707C299.445 314.516 299.445 321.898 299.445 321.898L299.113 331.135C299.113 331.135 296.091 350.602 294.58 355.969C293.628 359.335 294.726 390.503 295.683 413.417H453.328C455.181 399.861 452.567 358.675 452.567 358.675C452.567 358.675 450.084 348.027 449.994 338.745C449.989 338.734 449.986 338.723 449.986 338.712C449.986 338.701 449.989 338.689 449.994 338.679C449.994 337.868 449.994 337.077 450.024 336.301L451.167 336.26L453.222 336.19H453.408C453.408 336.19 453.459 335.998 453.574 335.686C453.846 334.908 454.217 334.167 454.677 333.484C455.554 332.189 456.924 330.919 458.983 330.833C460.122 330.788 461.884 329.865 463.874 328.505C463.887 328.508 463.901 328.508 463.914 328.505C469.267 324.882 476.343 318.194 478.061 317.096C480.423 315.584 491.734 305.506 491.734 305.506C491.734 305.506 493.421 303.369 495.219 300.794L495.285 300.703C497.521 297.478 499.898 293.623 499.314 292.408C498.306 290.232 499.989 285.026 499.989 285.026C505.241 275.406 499.676 262.657 497.309 259.467ZM399.923 104.469C399.972 104.619 400.002 104.775 400.014 104.932C399.888 104.766 399.762 104.59 399.636 104.428L399.515 104.267L399.43 104.146L399.621 103.884C399.621 103.884 399.621 103.884 399.621 103.919C399.754 104.083 399.856 104.269 399.923 104.469ZM398.231 100.004C397.682 100.115 397.249 100.216 396.967 100.291C396.609 99.6562 396.267 99.0213 395.96 98.3763C396.767 98.845 397.528 99.39 398.231 100.004ZM397.284 100.8C397.283 100.79 397.283 100.78 397.284 100.77L397.325 100.8C397.531 100.936 397.733 101.067 397.919 101.203C398.085 101.324 398.236 101.44 398.387 101.561C398.286 101.737 398.176 101.919 398.065 102.065C397.889 101.788 397.722 101.521 397.561 101.244C397.461 101.133 397.37 100.982 397.284 100.8ZM394.263 94.5817C395.236 94.4856 396.216 94.4856 397.189 94.5817C397.325 94.5817 397.445 94.6069 397.566 94.627C397.839 94.6693 398.108 94.7385 398.367 94.8337C398.962 95.6668 399.329 96.6416 399.43 97.6607L399.158 97.701L398.891 97.7514C398.387 97.8371 397.884 97.9227 397.491 98.0034L396.987 98.1092C396.317 98.2553 395.93 98.3662 395.914 98.3712C395.849 98.2352 395.783 98.1092 395.713 97.9782C395.602 97.7615 395.486 97.5397 395.386 97.3231C395.285 97.1064 395.154 96.8594 395.048 96.6327C394.978 96.5117 394.927 96.3908 394.872 96.2799C394.872 96.2295 394.822 96.1892 394.801 96.1388C394.772 96.0854 394.747 96.0298 394.726 95.9725C394.419 95.3477 394.137 94.7228 393.865 94.108C393.834 94.0475 393.809 93.982 393.784 93.9215L394.167 93.8963V94.0274L394.263 94.5817ZM274.103 407.188C274.062 399.685 273.518 391.566 272.007 383.947C271.363 380.707 270.698 377.466 270.023 374.282C269.852 373.485 269.686 372.699 269.52 371.913L267.968 372.12H267.827C263.597 352.159 259.175 334.572 259.175 334.572C259.175 334.572 250.392 301.016 251.409 298.34C251.54 297.992 251.374 297.055 251.001 295.679C248.876 288.049 240.002 267.026 236.9 259.84C236.9 259.809 236.875 259.774 236.864 259.749C236.361 258.545 235.998 257.733 235.887 257.496L236.618 246.773L236.658 246.128L236.754 244.757L236.713 244.722L236.754 244.087C236.754 244.087 229.089 237.798 216.105 233.257C215.601 233.076 215.068 232.9 214.539 232.728C215.188 228.39 216.05 223.491 217.173 218.719C217.279 218.24 217.394 217.777 217.515 217.308C217.621 216.84 217.742 216.386 217.863 215.927C218.054 215.182 218.261 214.446 218.472 213.72C219.172 213.498 219.862 213.252 220.542 212.99L220.804 212.889C229.18 209.628 236.091 203.44 240.257 195.472C244.424 187.504 245.564 178.296 243.467 169.551C242.271 164.592 240.063 159.933 236.98 155.869C236.749 155.557 236.502 155.244 236.255 154.937C236.008 154.63 235.711 154.287 235.434 153.975C236.89 150.664 238.607 147.514 238.748 144.294C238.773 143.886 238.773 143.477 238.748 143.07V143.019C238.562 140.948 237.645 138.852 235.51 136.65C232.392 133.419 227.955 131.782 223.518 130.995C219.081 130.209 214.559 130.189 210.097 129.66C202.699 128.773 195.492 126.49 188.093 125.79C178.981 124.946 169.806 126.509 161.487 130.325C155.982 132.845 150.407 137.249 150.075 143.291C149.803 148.285 153.278 153.073 152.401 158.006C151.53 162.854 146.595 166.669 147.028 171.572C147.194 173.487 148.176 175.2 149.405 176.727C149.828 177.231 150.276 177.735 150.74 178.239C152.532 180.139 154.507 181.963 155.509 184.356C155.549 184.457 155.589 184.558 155.625 184.659C156.476 187.022 156.093 190.01 153.988 191.366C154 191.375 154.008 191.387 154.013 191.401C154.043 191.442 154.074 191.472 154.099 191.512C154.102 191.504 154.102 191.495 154.099 191.487C154.845 192.372 155.851 193 156.974 193.281L157.402 193.412C157.055 193.79 156.728 194.183 156.395 194.596L156.179 194.883C155.624 195.63 155.119 196.413 154.668 197.227C154.411 197.68 154.164 198.134 153.958 198.587C153.267 199.97 152.768 201.439 152.472 202.956C151.933 206.292 152.694 209.769 151.878 213.035C150.87 217.066 147.683 220.16 145.885 223.905C142.48 230.96 144.409 239.239 145.094 247.03C146.026 257.612 144.515 268.24 143.009 278.752C142.21 284.342 141.411 289.938 140.612 295.538C138.597 309.594 136.583 323.65 134.568 337.707C133.833 342.857 132.962 348.289 129.532 352.265H129.567C129.567 352.265 129.567 352.295 129.532 352.305C130.561 352.756 131.656 353.038 132.775 353.142C137.252 353.59 141.997 351.423 146.026 349.055C149.216 347.21 152.238 345.087 155.056 342.711C154.643 344.222 154.199 345.87 153.726 347.644C153.728 347.661 153.728 347.678 153.726 347.694C148.04 369.363 138.894 409.088 138.894 409.088C138.894 409.088 138.063 410.816 136.986 413.391H279.008C277.346 411.376 275.8 409.446 274.591 407.889L274.103 407.188ZM168.946 206.826C168.981 206.766 169.006 206.711 169.041 206.655C169.041 206.816 169.041 206.973 169.041 207.124C169.041 207.275 169.041 207.411 169.041 207.552C169.041 207.693 169.041 207.678 169.041 207.749C169.041 207.819 169.041 207.749 169.041 207.749C169.041 207.955 168.996 208.162 168.961 208.369C168.961 208.369 168.961 208.394 168.961 208.414L169.464 208.6L170.049 208.842C173.5 210.206 176.995 211.441 180.534 212.546C180.897 212.662 181.264 212.773 181.632 212.879L181.707 213.504C181.798 214.144 181.884 214.794 181.964 215.444C181.964 215.444 181.964 215.474 181.964 215.494C182.191 217.293 182.413 219.087 182.609 220.841C182.609 220.841 173.362 217.313 173.478 222.67C173.473 222.766 173.473 222.862 173.478 222.957C173.468 223.085 173.468 223.213 173.478 223.34C173.564 227.513 174.868 229.987 175.13 231.257C175.114 231.309 175.087 231.358 175.05 231.398C174.826 231.884 174.749 232.426 174.828 232.955C174.819 233.857 174.89 234.757 175.039 235.646C174.767 235.812 174.501 235.979 174.234 236.15C174.032 236.276 173.841 236.417 173.644 236.558C172.409 232.27 170.793 228.101 168.815 224.101C167.43 221.249 165.873 218.276 165.889 215.146C165.889 214.945 165.889 214.738 165.914 214.532C165.97 213.625 166.143 212.729 166.427 211.866C166.543 211.538 166.669 211.216 166.81 210.898C167.139 210.144 167.507 209.407 167.913 208.691C168.175 208.217 168.452 207.749 168.719 207.275C168.805 207.134 168.885 206.988 168.966 206.847L168.946 206.826ZM395.073 96.6327C395.003 96.5117 394.953 96.3908 394.897 96.2799C394.897 96.2295 394.847 96.1892 394.827 96.1388C394.717 96.1906 394.604 96.2361 394.489 96.2749C394.268 96.3606 394.041 96.4412 393.809 96.5067C393.578 96.5722 393.482 96.6075 393.306 96.6478L392.857 96.7637L392.898 96.8544C393.084 96.8141 393.265 96.7788 393.452 96.7284L393.502 97.3533C393.714 97.3533 393.91 97.3231 394.101 97.3231H394.373C394.766 97.3231 395.109 97.3231 395.381 97.3231C395.275 97.0963 395.164 96.8594 395.073 96.6327Z" fill="url(#paint1_linear_4_6)"/>
<path d="M285.031 170.65L282.01 171.985C282.01 171.985 262.313 248.552 262.313 254.74C262.313 260.928 304.078 295.362 304.078 295.362L310.595 251.348C310.595 251.348 301.238 150.417 285.031 170.65Z" fill="#E8F5FF"/>
<path d="M376.646 146.295L359.195 137.184C358.218 133.014 356.483 129.06 354.078 125.518C351.525 121.829 348.13 118.206 343.9 116.316C333.208 111.519 389.125 86.3374 389.125 86.3374C390.006 89.3624 391.043 92.3396 392.233 95.2569C395.114 102.372 399.893 111.574 406.052 114.195C416.523 118.654 376.646 146.295 376.646 146.295Z" fill="#FFB0B1"/>
<path opacity="0.1" d="M392.233 95.2569C389.844 103.665 384.875 111.109 378.029 116.539C371.183 121.969 362.805 125.11 354.078 125.518C351.525 121.829 348.13 118.206 343.9 116.316C333.208 111.519 389.125 86.3374 389.125 86.3374C390.006 89.3624 391.043 92.3396 392.233 95.2569Z" fill="black"/>
<path d="M393.804 82.5429C393.806 90.789 391.364 98.8505 386.787 105.708C382.21 112.565 375.703 117.91 368.09 121.067C360.476 124.224 352.098 125.051 344.015 123.443C335.932 121.835 328.507 117.864 322.68 112.034C316.852 106.203 312.883 98.7745 311.275 90.6869C309.667 82.5992 310.492 74.2161 313.646 66.5977C316.8 58.9794 322.141 52.4681 328.994 47.8873C335.847 43.3065 343.903 40.862 352.144 40.863C357.622 40.8377 363.05 41.8984 368.116 43.984C373.181 46.0695 377.784 49.1386 381.657 53.0139C385.531 56.8893 388.598 61.494 390.683 66.5624C392.768 71.6307 393.829 77.0621 393.804 82.5429Z" fill="#FFB0B1"/>
<path d="M399.817 140.943L388.456 167.47L378.434 185.077H346.353L336.995 161.004L340.788 136.04H365.289L381.108 135.148L386.451 133.364L389.896 135.319L399.817 140.943Z" fill="#575A89"/>
<path opacity="0.1" d="M395.904 105.582C395.904 105.582 402.99 107.094 396.645 112.3C390.299 117.505 368.406 134.059 368.406 134.059C368.406 134.059 376.097 140.913 374.505 148.94L399.984 134.73L404.516 111.992C404.516 111.992 405.025 105.159 395.904 105.582Z" fill="black"/>
<path opacity="0.1" d="M373.417 134.059L357.211 136.735C357.211 136.735 360.555 149.107 358.883 152.619C358.832 152.728 358.79 152.841 358.757 152.957L352.144 170.841L357.1 184.886L374.253 161.478L368.406 152.619C368.406 152.619 374.586 144.425 378.262 141.583C381.939 138.741 373.417 134.059 373.417 134.059Z" fill="black"/>
<path d="M373.417 133.369L357.211 136.04C357.211 136.04 360.555 148.411 358.883 151.924C358.832 152.033 358.79 152.146 358.757 152.261L352.144 170.146L357.1 184.19L374.253 160.768L368.406 151.908C368.406 151.908 374.586 143.715 378.262 140.872C381.939 138.03 373.417 133.369 373.417 133.369Z" fill="#DCE6F2"/>
<path d="M396.584 104.247C396.584 104.247 403.67 105.759 397.32 110.964C390.969 116.17 368.406 134.059 368.406 134.059C368.406 134.059 376.762 139.577 375.175 147.6L400.654 133.394L405.186 110.657C405.186 110.657 405.69 103.824 396.584 104.247Z" fill="#575A89"/>
<path opacity="0.1" d="M355.191 127.095C355.191 127.095 356.738 129.988 363.562 135.203C363.562 135.203 352.2 141.25 356.546 149.752L339.166 145.216L336.492 136.856L355.191 127.095Z" fill="black"/>
<path d="M354.521 126.43C354.521 126.43 356.067 129.322 362.892 134.538C362.892 134.538 351.53 140.555 355.876 149.081L338.501 144.546L335.827 136.191L354.521 126.43Z" fill="#575A89"/>
<path opacity="0.1" d="M399.817 140.943L388.456 167.47L378.454 185.077H346.353L336.995 161.004L340.783 136.04H347.597C347.486 141.865 349.611 148.709 349.475 151.253C349.243 155.436 355.71 178.002 355.71 178.002C355.71 178.002 369.242 156.101 374.586 154.151C377.945 152.926 385.061 142.737 389.891 135.319L399.817 140.943Z" fill="black"/>
<path d="M444.575 280.536L443.421 281.987C443.421 281.987 451.777 323.949 449.465 333.479C449.072 335.196 448.848 336.948 448.795 338.709V338.785C448.387 348.481 451.313 361.064 451.313 361.064C451.313 361.064 453.65 398.153 452.32 413.407H295.884C294.968 390.851 293.981 361.628 294.877 358.388C296.388 353.041 299.41 333.645 299.41 333.645L299.742 324.453C299.742 324.453 299.742 315.569 300.014 305.672C300.13 301.222 300.301 296.551 300.548 292.409C300.865 287.198 301.308 282.809 301.918 280.652C302.293 279.017 302.509 277.35 302.562 275.673C302.562 275.517 302.562 275.356 302.593 275.194C302.593 274.69 302.643 274.146 302.663 273.587C302.663 273.431 302.663 273.274 302.663 273.083C302.759 269.838 302.724 265.988 302.618 261.997C302.618 261.78 302.618 261.558 302.618 261.336C302.532 258.343 302.406 255.289 302.265 252.387C301.827 243.316 301.258 235.646 301.258 235.646L282.045 171.95L287.222 159.19L301.59 150.382L328.157 134.332C341.115 123.673 349.646 124.953 352.9 126.123C353.216 126.23 353.525 126.357 353.826 126.501C353.927 126.551 354.008 126.591 354.083 126.637C354.187 126.686 354.286 126.743 354.38 126.808C353.49 127.237 352.716 127.875 352.124 128.667C351.458 129.569 350.983 130.598 350.729 131.691C350.559 132.368 350.439 133.057 350.372 133.752C350.306 134.483 350.281 135.239 350.281 136C350.317 137.668 350.46 139.333 350.709 140.983C350.709 141.014 350.709 141.054 350.709 141.094C350.875 142.273 351.082 143.427 351.283 144.511C351.281 144.529 351.281 144.548 351.283 144.566C351.515 145.831 351.747 147 351.903 148.008C351.933 148.19 351.958 148.356 351.983 148.512C352.094 149.178 352.146 149.853 352.139 150.528C352.196 152.158 352.415 153.779 352.794 155.365C352.925 156.031 353.076 156.741 353.242 157.482C353.469 158.49 353.716 159.588 353.983 160.707C354.129 161.322 354.285 161.957 354.446 162.587C354.506 162.839 354.572 163.091 354.632 163.348L354.733 163.746C355.806 168.014 356.969 172.262 357.684 174.832C358.107 176.344 358.374 177.276 358.374 177.276C358.374 177.276 365.959 165.006 372.012 158.021C372.103 157.92 372.184 157.825 372.269 157.734C372.869 157.044 373.458 156.414 374.022 155.859C375.256 154.63 376.364 153.753 377.255 153.43C377.445 153.361 377.629 153.275 377.804 153.173C380.282 151.767 384.281 146.663 388.023 141.316C388.39 140.812 388.748 140.263 389.11 139.744C389.941 138.544 390.747 137.34 391.508 136.186C392.092 135.304 392.651 134.447 393.18 133.631C395.698 129.711 397.471 126.788 397.471 126.788L400.966 126.632L401.575 126.601H401.983L417.852 125.866C417.852 125.866 418.537 125.981 419.665 126.208C419.726 126.208 419.786 126.208 419.852 126.249C425.482 127.367 441.125 130.91 442.082 135.823C443.25 141.84 468.482 149.868 468.482 149.868C468.814 153.899 474.994 156.555 474.994 156.555C474.994 156.555 484.351 181.298 481.848 190.993C479.375 200.568 488.284 224.252 488.521 224.918L486.814 227.074L444.575 280.536Z" fill="#E8F5FF"/>
<path opacity="0.1" d="M395.899 103.824C395.899 103.824 411.345 99.4396 414.856 108.465C418.366 117.49 426.218 153.939 426.218 153.939C426.218 153.939 405.831 157.784 400.487 153.939C397.353 151.657 393.474 150.642 389.624 151.097L378.096 158.953L374.692 157.946C374.692 157.946 393.134 130.512 397.143 121.189C401.152 111.866 402.507 107.699 395.899 103.824Z" fill="black"/>
<path d="M395.23 101.808C395.23 101.808 410.686 97.4239 414.211 106.449C417.737 115.475 425.573 151.924 425.573 151.924C425.573 151.924 405.191 155.769 399.843 151.924C396.71 149.642 392.833 148.626 388.985 149.081L377.447 156.938L374.042 155.93C374.042 155.93 392.485 128.496 396.494 119.173C400.502 109.851 401.837 105.693 395.23 101.808Z" fill="#E8F5FF"/>
<path opacity="0.1" d="M291.548 247.216C291.548 247.216 303.076 250.058 305.252 256.579C307.428 263.1 296.731 263.266 296.731 263.266C296.731 263.266 290.214 251.731 291.548 247.216Z" fill="black"/>
<path opacity="0.1" d="M334.487 295.362C334.487 295.362 306.254 353.207 312.771 358.725C319.288 364.243 334.487 295.362 334.487 295.362Z" fill="black"/>
<path opacity="0.1" d="M373.417 252.734C373.417 252.734 395.975 308.922 391.462 317.6C386.95 326.278 401.152 317.6 401.152 317.6L373.417 252.734Z" fill="black"/>
<path d="M404.829 308.237C404.829 308.237 328.64 311.916 350.865 335.656C373.09 359.396 418.699 336.663 418.699 336.663L404.829 308.237Z" fill="#FFB0B1"/>
<path opacity="0.1" d="M393.804 82.5428C393.811 88.0105 392.738 93.4256 390.647 98.477C389.947 98.5576 389.247 98.608 388.572 98.6382C387.564 96.426 388.103 93.8711 388.123 91.4371C388.144 89.0031 387.247 86.1408 384.905 85.4857C380.237 84.1705 377.013 92.9035 372.41 91.3262C368.885 90.1269 369.807 84.7752 367.777 81.6861C366.17 79.2421 362.952 78.5517 360.449 77.0197C355.126 73.7492 355.287 68.5185 352.814 63.5699C350.226 58.3845 344.756 59.9164 340.007 62.9753C336.401 65.3034 333.289 68.4227 329.431 70.2772C326.092 71.8897 322.34 72.4743 318.638 72.56C316.359 72.6483 314.08 72.4073 311.87 71.8444C314.469 62.0651 320.535 53.5658 328.935 47.9314C337.336 42.297 347.498 39.9121 357.526 41.2216C367.554 42.5311 376.764 47.4455 383.438 55.0484C390.112 62.6512 393.795 72.4235 393.799 82.5428H393.804Z" fill="black"/>
<path d="M340.022 61.64C336.411 63.9681 333.304 67.0824 329.446 68.9469C326.107 70.5545 322.355 71.139 318.653 71.2247C314.121 71.3255 309.241 70.5293 306.143 67.2537C303.298 64.2302 302.618 59.5789 303.822 55.613C305.025 51.6471 307.911 48.3565 311.3 45.9729C314.69 43.5893 318.623 41.9415 320.869 38.5299C322.058 36.7258 322.632 34.5992 323.619 32.6793C326.777 26.5364 333.878 23.2105 340.742 22.7973C347.607 22.384 354.411 24.43 360.948 26.6473C367.485 28.8646 374.072 31.3036 380.972 31.7621C384.044 31.9536 387.237 31.7621 390.088 32.9262C393.92 34.4833 396.433 38.2074 398.146 41.9969C400.064 46.2702 401.258 50.9366 401.057 55.6029C400.634 65.5656 394.056 75.3418 396.947 84.8862C397.713 87.431 399.148 90.0414 398.382 92.5862C397.264 96.3001 392.475 97.1467 388.602 97.3231C387.595 95.1109 388.134 92.5509 388.154 90.122C388.174 87.6931 387.277 84.8257 384.941 84.1706C380.267 82.8654 377.044 91.5834 372.451 90.0111C368.951 88.8067 369.857 83.4601 367.822 80.371C366.216 77.9219 362.993 77.2366 360.495 75.7046C355.171 72.4341 355.332 67.2034 352.86 62.2548C350.251 57.0442 344.776 58.5761 340.022 61.64Z" fill="#575A89"/>
<path d="M266.145 253.399L262.303 254.74C262.303 254.74 263.813 277.477 258.777 283.998C253.741 290.519 275.316 306.73 275.316 306.73C275.316 306.73 304.889 306.564 305.725 304.21C306.561 301.857 304.214 262.082 304.214 262.082C304.214 262.082 288.34 255.894 289.675 246.032C289.675 246.032 284.83 269.268 277.648 268.265C270.466 267.263 262.313 261.261 266.145 253.399Z" fill="#E8F5FF"/>
<path opacity="0.1" d="M278.963 275.3C284.562 275.3 289.101 271.147 289.101 266.023C289.101 260.899 284.562 256.746 278.963 256.746C273.364 256.746 268.825 260.899 268.825 266.023C268.825 271.147 273.364 275.3 278.963 275.3Z" fill="black"/>
<path d="M290.047 254.07C290.047 254.07 288.033 192.55 270.497 206.257C252.961 219.964 252.789 236.357 256.128 241.199C259.467 246.042 270.174 270.286 270.174 270.286C271.849 271.257 273.73 271.818 275.663 271.921C277.596 272.025 279.526 271.669 281.295 270.882C283.064 270.095 284.621 268.901 285.84 267.396C287.058 265.89 287.903 264.118 288.305 262.223L290.047 254.07Z" fill="#FFB0B1"/>
<path opacity="0.1" d="M399.44 98.2402C399.358 97.9699 399.201 97.7286 398.986 97.5448C398.12 96.7536 396.257 96.4764 393.447 96.7183L393.562 98.0487C397.309 97.7262 398.05 98.472 398.145 98.598V98.724L398.261 98.8903C398.728 99.5185 399.059 100.237 399.233 101.001C399.406 101.765 399.418 102.556 399.268 103.325C398.448 107.432 393.406 110.702 393.356 110.738L393.235 110.808L393.16 110.924C390.984 114.154 378.68 123.27 375.462 125.629L375.18 125.306C373.74 126.556 361.079 137.647 360.394 141.895C359.95 144.561 356.949 145.594 355.861 145.882C354.713 145.01 350.986 142.042 349.047 138.716C347.229 135.586 354.547 129.479 355.191 127.095L354.184 126.062C354.078 126.445 344.681 135.234 347.294 139.724C349.389 143.327 353.217 146.411 354.557 147.429C354.129 151.319 351.464 174.162 347.37 179.574C342.283 186.302 338.008 220.206 338.481 232.043C338.899 242.56 336.154 262.425 326.988 270.956C325.401 272.498 323.487 273.661 321.388 274.359C319.289 275.057 317.059 275.272 314.866 274.988H314.755H314.644C314.513 274.988 301.218 276.348 290.047 266.925C280.907 259.23 275.729 246.672 274.652 229.589H274.43L274.339 224.615C276.818 224.228 279.05 222.895 280.566 220.896C282.083 218.897 282.766 216.387 282.472 213.894C282.179 211.402 280.931 209.12 278.991 207.529C277.051 205.937 274.57 205.16 272.07 205.361C269.569 205.561 267.244 206.724 265.582 208.604C263.92 210.484 263.052 212.935 263.158 215.443C263.265 217.951 264.339 220.319 266.154 222.051C267.97 223.783 270.385 224.744 272.894 224.731H273.005L273.095 229.675L272.652 229.705C273.76 247.342 279.199 260.389 288.768 268.447C296.041 274.477 305.331 277.519 314.76 276.958C315.429 277.031 316.102 277.068 316.775 277.069C321.097 277.091 325.255 275.418 328.358 272.408C338.013 263.413 340.949 242.817 340.49 231.942C339.987 219.399 344.474 186.715 348.976 180.763C353.388 174.923 356.062 152.165 356.531 147.756C358.127 147.308 361.738 145.892 362.353 142.213C362.796 139.552 371.252 131.353 376.454 126.813L376.298 126.631C379.098 124.586 387.806 118.135 392.122 113.993C393.462 112.708 394.791 111.423 396.181 110.198C397.853 108.717 399.979 106.364 400.538 103.582C400.728 102.664 400.729 101.716 400.54 100.797C400.352 99.8789 399.977 99.0086 399.44 98.2402Z" fill="black"/>
<path d="M354.386 147.111C354.174 146.965 349.158 143.372 346.645 139.048C344.036 134.558 353.434 125.775 353.534 125.392L354.542 126.425C353.902 128.803 346.584 134.916 348.403 138.04C350.694 141.986 355.519 145.438 355.569 145.473L354.386 147.111Z" fill="#353146"/>
<path d="M374.808 126.606L374.022 125.523C374.183 125.407 390.002 113.958 392.495 110.254L392.575 110.143L392.691 110.067C392.742 110.032 397.783 106.767 398.604 102.655C398.755 101.887 398.744 101.096 398.57 100.333C398.397 99.5699 398.065 98.8518 397.597 98.2252L397.481 98.0538V97.9329C397.38 97.8019 396.64 97.0611 392.893 97.3836L392.777 96.0482C395.592 95.8063 397.451 96.0835 398.317 96.8746C398.532 97.0603 398.691 97.3031 398.775 97.5751C399.32 98.3413 399.702 99.211 399.897 100.131C400.093 101.05 400.099 102 399.913 102.922C399.354 105.708 397.234 108.062 395.557 109.538C394.172 110.763 392.837 112.058 391.503 113.333C386.441 118.186 375.362 126.208 374.808 126.606Z" fill="#E8F5FF"/>
<path d="M273.689 222.861L272.355 222.885L272.504 231.002L273.838 230.978L273.689 222.861Z" fill="#E8F5FF"/>
<path d="M272.244 224.091C277.626 224.091 281.989 219.725 281.989 214.34C281.989 208.955 277.626 204.589 272.244 204.589C266.862 204.589 262.499 208.955 262.499 214.34C262.499 219.725 266.862 224.091 272.244 224.091Z" fill="#587EEC"/>
<path d="M272.244 222.438C276.714 222.438 280.338 218.813 280.338 214.34C280.338 209.868 276.714 206.242 272.244 206.242C267.774 206.242 264.151 209.868 264.151 214.34C264.151 218.813 267.774 222.438 272.244 222.438Z" fill="#E8F5FF"/>
<path d="M316.14 276.419C315.467 276.42 314.795 276.385 314.126 276.313C304.697 276.869 295.409 273.827 288.134 267.802C278.565 259.739 273.136 246.707 272.018 229.055L274.032 228.929C275.11 246.012 280.287 258.575 289.433 266.265C300.603 275.663 313.894 274.328 314.025 274.328H314.136H314.247C316.441 274.611 318.671 274.395 320.77 273.697C322.87 272.999 324.785 271.837 326.374 270.296C335.535 261.765 338.28 241.9 337.862 231.383C337.358 219.536 341.634 185.631 346.725 178.909C351.182 173.018 353.947 146.466 353.978 146.199L354.053 145.443L354.798 145.312C354.844 145.312 359.195 144.486 359.739 141.23C360.444 136.987 373.085 125.896 374.52 124.641L375.835 126.153C370.612 130.688 362.156 138.892 361.733 141.558C361.119 145.247 357.508 146.658 355.916 147.101C355.413 151.515 352.759 174.268 348.362 180.108C343.86 186.06 339.372 218.744 339.876 231.287C340.309 242.162 337.403 262.762 327.749 271.752C324.64 274.77 320.471 276.446 316.14 276.419Z" fill="#353146"/>
<g opacity="0.1">
<path opacity="0.1" d="M398.095 70.63C398.921 67.5762 399.918 64.5022 400.613 61.4081C399.782 64.5173 398.78 67.5762 398.095 70.63Z" fill="black"/>
<path opacity="0.1" d="M389.67 94.627C388.662 92.4148 389.201 89.8549 389.221 87.4259C389.241 84.997 388.345 82.1548 386.008 81.4745C381.335 80.1694 378.111 88.8923 373.518 87.3151C369.993 86.1107 370.925 80.764 368.89 77.6749C367.283 75.2258 364.065 74.5405 361.567 73.0086C356.239 69.7381 356.4 64.5073 353.932 59.5587C351.339 54.3683 345.874 55.9002 341.12 58.9641C337.509 61.2922 334.402 64.4115 330.544 66.271C327.205 67.8786 323.453 68.4631 319.751 68.5488C315.244 68.6546 310.338 67.8534 307.241 64.5778C304.854 62.0582 303.993 58.3644 304.486 54.9024C304.401 55.1393 304.325 55.3761 304.25 55.613C303.041 59.5789 303.746 64.2402 306.571 67.2537C309.669 70.5292 314.574 71.3254 319.081 71.2246C322.788 71.139 326.535 70.5544 329.879 68.9469C333.747 67.0824 336.854 63.9681 340.455 61.6399C345.209 58.5761 350.679 57.0441 353.267 62.2346C355.735 67.1832 355.579 72.4139 360.902 75.6844C363.421 77.1962 366.619 77.9017 368.23 80.3508C370.245 83.4499 369.353 88.7865 372.859 89.9909C377.447 91.5632 380.67 82.8452 385.343 84.1504C387.68 84.8055 388.582 87.6779 388.557 90.1018C388.531 92.5257 388.008 95.0907 389.005 97.3029C392.878 97.1265 397.667 96.295 398.79 92.566C398.945 92.0308 399.016 91.475 399.002 90.9181C397.365 93.7452 393.155 94.4708 389.67 94.627Z" fill="black"/>
</g>
<path opacity="0.1" d="M480.69 218.795L486.537 224.983C486.537 224.983 491.216 259.084 493.552 262.274C495.889 265.464 501.409 278.152 496.227 287.682C496.227 287.682 494.555 292.867 495.557 295.039C496.559 297.211 488.043 308.081 488.043 308.081C488.043 308.081 476.847 318.109 474.505 319.616C472.163 321.122 459.804 333.156 455.629 333.322C451.454 333.489 450.09 338.674 450.09 338.674L426.53 339.511C426.53 339.511 413.516 338.83 410.686 340.67C410.686 340.67 412.197 320.775 397.657 307.733L416.201 301.046C416.201 301.046 423.221 298.022 425.392 294.863C426.757 292.926 428.694 291.465 430.932 290.685C430.932 290.685 436.109 287.006 436.275 285.001C436.441 282.995 442.606 280.536 442.606 280.536L439.116 250.729L440.954 201.243C440.954 201.243 446.801 159.78 459.165 162.123C471.529 164.466 480.69 218.795 480.69 218.795Z" fill="black"/>
<path d="M482.704 218.795L488.551 224.983C488.551 224.983 493.23 259.084 495.567 262.274C497.904 265.464 503.423 278.152 498.241 287.682C498.241 287.682 496.574 292.867 497.576 295.039C498.578 297.211 490.057 308.081 490.057 308.081C490.057 308.081 478.862 318.109 476.52 319.616C474.178 321.122 461.819 333.156 457.644 333.322C453.469 333.489 452.104 338.674 452.104 338.674L428.544 339.511C428.544 339.511 415.521 338.83 412.7 340.67C412.7 340.67 414.211 320.775 399.672 307.733L418.215 301.046C418.215 301.046 425.236 298.022 427.406 294.863C428.772 292.926 430.709 291.465 432.946 290.685C432.946 290.685 438.123 287.006 438.289 285.001C438.456 282.995 444.62 280.536 444.62 280.536L441.13 250.729L442.968 201.243C442.968 201.243 448.815 159.78 461.179 162.123C473.543 164.466 482.704 218.795 482.704 218.795Z" fill="#E8F5FF"/>
<path opacity="0.1" d="M460.968 268.784C460.968 268.784 478.177 264.249 482.689 269.792C487.202 275.336 460.968 268.784 460.968 268.784Z" fill="black"/>
<path opacity="0.1" d="M456.959 276.389C462.806 280.486 480.851 280.652 480.851 280.652L456.959 276.389Z" fill="black"/>
<path opacity="0.1" d="M465.813 296.868C466.316 297.035 478.217 309.744 483.213 305.899C488.209 302.054 465.813 296.868 465.813 296.868Z" fill="black"/>
<path opacity="0.1" d="M305.539 190.207C305.539 190.207 309.034 214.285 307.312 224.091C305.589 233.898 311.875 246.047 311.875 246.047L305.539 190.207Z" fill="black"/>
<path d="M228.162 199.998C224.133 203.158 221.192 210.636 219.061 218.855C215.345 233.192 214.131 249.817 214.131 249.817C214.131 249.817 182.05 242.459 184.387 239.118C185.857 237.017 183.883 221.183 182.236 209.704C181.254 202.921 180.378 197.655 180.378 197.655C180.378 197.655 239.191 191.301 228.162 199.998Z" fill="#FFB0B1"/>
<path opacity="0.1" d="M228.162 199.328C224.133 202.493 221.192 209.966 219.061 218.185C212.67 220.127 205.872 220.302 199.389 218.692C192.905 217.082 186.979 213.746 182.236 209.039C181.254 202.251 180.378 196.985 180.378 196.985C180.378 196.985 239.191 190.635 228.162 199.328Z" fill="black"/>
<path d="M245.406 181.318C245.409 190.083 242.314 198.566 236.667 205.267C231.02 211.967 223.186 216.453 214.552 217.93C205.917 219.407 197.039 217.78 189.488 213.337C181.938 208.894 176.201 201.921 173.294 193.653C170.388 185.385 170.498 176.354 173.605 168.159C176.713 159.965 182.618 153.134 190.275 148.877C197.932 144.619 206.847 143.21 215.443 144.897C224.038 146.584 231.76 151.26 237.242 158.097C242.525 164.682 245.404 172.873 245.406 181.318Z" fill="#FFB0B1"/>
<path opacity="0.1" d="M274.656 413.407H264.08L263.189 394.716L262.257 375.37C262.257 375.37 264.659 375.012 268.487 374.478L270.033 374.271H270.159C270.995 378.197 271.821 382.229 272.617 386.255C273.941 393.403 274.631 400.654 274.677 407.924C274.677 408.428 274.677 408.932 274.677 409.405C274.707 410.751 274.677 412.096 274.656 413.407Z" fill="black"/>
<path d="M272.627 413.407H139.992C140.566 412.101 140.949 411.31 140.949 411.31C140.949 411.31 151.56 364.858 156.954 345.205C156.956 345.188 156.956 345.171 156.954 345.155C157.628 342.485 158.442 339.852 159.392 337.268C159.453 337.092 159.533 336.924 159.629 336.764C162.298 332.42 165.642 327.739 160.963 321.052C156.284 314.365 157.941 284.94 157.941 284.94C157.941 284.94 163.622 259.86 169.636 246.486C170.548 244.414 171.843 242.533 173.453 240.942C173.976 240.43 174.535 239.955 175.125 239.521C175.574 239.184 176.041 238.873 176.525 238.589L176.621 238.529C179.147 237.096 181.952 236.224 184.845 235.974C186.9 235.759 188.975 235.816 191.014 236.145C200.765 237.576 208.571 239.97 214.776 242.696C231.592 250.089 236.683 259.996 236.784 260.203L236.824 260.288C237.499 261.865 247.37 284.925 250.926 295.684C251.847 298.486 252.351 300.456 252.15 300.995C251.142 303.666 259.835 337.102 259.835 337.102C259.835 337.102 263.864 353.228 267.893 372.13C268.069 372.916 268.235 373.702 268.396 374.498C269.117 377.93 269.832 381.427 270.522 384.92C271.859 392.117 272.548 399.419 272.582 406.74C272.656 409.021 272.671 411.243 272.627 413.407Z" fill="#EB5569"/>
<path opacity="0.1" d="M184.054 224.474C184.054 224.474 174.904 220.947 175.014 226.298C175.125 231.65 177.245 234.21 176.576 234.991C175.906 235.772 176.908 240.454 176.908 240.454C176.908 240.454 189.272 240.454 194.953 243.014C200.634 245.574 221.574 250.703 224.249 252.266C226.923 253.828 236.839 260.832 236.839 260.832L237.731 247.569C237.731 247.569 227.482 239.098 210.666 234.754C193.85 230.41 184.054 224.474 184.054 224.474Z" fill="black"/>
<path d="M184.054 223.804C184.054 223.804 174.904 220.276 175.014 225.628C175.125 230.98 177.245 233.54 176.576 234.321C175.906 235.102 176.908 239.783 176.908 239.783C176.908 239.783 189.272 239.783 194.953 242.348C200.634 244.913 221.574 250.038 224.249 251.595C226.923 253.153 236.839 260.162 236.839 260.162L237.741 246.939C237.741 246.939 227.492 238.468 210.676 234.124C193.86 229.78 184.054 223.804 184.054 223.804Z" fill="#EB5569"/>
<path opacity="0.1" d="M211.678 255.723C211.678 255.723 229.164 274.665 228.273 279.911C227.381 285.157 211.678 255.723 211.678 255.723Z" fill="black"/>
<path opacity="0.1" d="M183.274 324.151C183.274 324.151 170.457 335.968 166.679 336.638C162.902 337.309 169.575 339.536 173.916 337.757C178.258 335.978 187.514 331.297 187.514 331.297L183.274 324.151Z" fill="black"/>
<path d="M277.834 413.407H247.944C243.764 409.778 239.811 406.417 237.292 404.396C233.263 401.161 230.358 396.399 228.504 392.569C228.086 391.697 227.724 390.881 227.416 390.14C226.866 388.864 226.382 387.561 225.966 386.235L248.1 373.082C249.324 374.123 250.473 375.248 251.54 376.449L251.807 376.756C253.036 378.207 254.119 379.855 254.214 381.206C254.325 382.778 258.697 388.86 263.164 394.701C267.696 400.642 272.34 406.321 272.647 406.704C272.647 406.704 273.412 407.748 274.661 409.35C275.543 410.509 276.631 411.9 277.834 413.407Z" fill="#FFB0B1"/>
<path opacity="0.1" d="M237.242 158.097C236.18 160.495 235.228 162.985 235.087 165.656C234.689 173.366 235.334 190.605 226.802 194.475C222.577 196.38 218.054 192.198 213.421 192.097C210.087 192.026 207.03 194.143 204.995 196.788C202.961 199.434 201.696 202.573 200.221 205.567C198.878 208.284 197.33 210.895 195.593 213.378C195.073 214.137 194.501 214.86 193.88 215.539C188.678 213.343 184.046 209.987 180.336 205.728C176.626 201.469 173.937 196.419 172.473 190.962C171.01 185.506 170.81 179.787 171.89 174.241C172.97 168.696 175.301 163.47 178.704 158.963C182.108 154.455 186.496 150.784 191.532 148.23C196.568 145.676 202.121 144.306 207.767 144.225C213.413 144.143 219.002 145.352 224.11 147.76C229.218 150.167 233.71 153.71 237.242 158.117V158.097Z" fill="black"/>
<path d="M234.417 164.295C234.014 172.005 234.664 189.244 226.127 193.11C221.902 195.014 217.379 190.837 212.746 190.736C209.412 190.66 206.36 192.782 204.32 195.423C202.281 198.063 201.027 201.208 199.546 204.206C198.202 206.923 196.655 209.534 194.918 212.017C193.88 213.488 192.732 214.965 191.135 215.791C188.355 217.243 184.986 216.426 182.005 215.494C178.137 214.274 174.326 212.9 170.572 211.372C170.658 210.805 170.702 210.232 170.703 209.659C170.592 209.87 170.472 210.067 170.351 210.278L170.114 210.692C169.686 211.447 169.268 212.203 168.885 212.979C168.739 213.277 168.598 213.584 168.472 213.892C167.966 215.035 167.648 216.254 167.53 217.5C167.274 220.861 168.931 224.051 170.401 227.074C176.057 238.77 179.552 252.447 175.296 264.718C173.453 270.054 170.26 274.796 167.928 279.951C163.852 289.082 162.652 299.238 164.489 309.068C165.652 315.176 167.984 321.223 167.41 327.416C166.402 338.074 157.216 346.006 148.015 351.459C143.044 354.392 136.96 357.002 131.682 354.684C135.047 350.753 135.913 345.316 136.638 340.186C138.622 326.193 140.612 312.194 142.606 298.188C143.402 292.615 144.196 287.042 144.988 281.468C146.469 270.997 147.97 260.409 147.043 249.872C146.368 242.106 144.464 233.862 147.829 226.832C149.606 223.108 152.774 220.024 153.761 216.013C154.572 212.753 153.817 209.286 154.351 205.965C154.643 204.454 155.137 202.989 155.821 201.611C156.692 199.74 157.828 198.006 159.195 196.461C157.846 196.068 156.587 195.528 155.821 194.4C157.987 192.989 158.314 189.809 157.332 187.42C156.35 185.032 154.386 183.212 152.618 181.328C150.85 179.443 149.148 177.246 148.927 174.676C148.498 169.783 153.384 165.993 154.245 161.166C155.116 156.252 151.671 151.475 151.948 146.501C152.271 140.489 157.79 136.12 163.24 133.586C171.463 129.777 180.546 128.212 189.569 129.05C196.912 129.746 204.018 132.018 211.341 132.9C215.758 133.404 220.235 133.455 224.621 134.231C229.008 135.007 233.405 136.644 236.492 139.865C244.63 148.356 234.88 155.345 234.417 164.295Z" fill="#575A89"/>
<path opacity="0.1" d="M227.608 392.574C225.039 391.46 220.366 392.126 212.343 389.682C204.32 387.238 202.774 376.191 202.774 376.191V376.156C202.678 375.904 201.933 374.261 196.887 368.507C191.311 362.152 179.26 330.057 179.26 330.057C179.26 330.057 168.573 318.572 168.91 314.339C169.248 310.106 167.012 298.844 167.233 286.245C167.455 273.647 191.291 265.292 191.291 265.292C237.187 257.154 226.379 310.096 225.155 314.108C223.931 318.119 230.282 328.953 230.282 328.953C229.386 333.67 233.958 340.972 233.958 340.972C233.958 340.972 235.066 347.432 235.293 349.886C235.306 350 235.331 350.111 235.369 350.219C236.104 352.532 242.097 354.628 244.535 355.903C247.098 357.244 255.342 368.945 255.342 368.945C257.12 377.537 230.166 393.703 227.608 392.574Z" fill="black"/>
<path d="M228.943 390.558C226.379 389.44 221.7 390.11 213.683 387.661C205.665 385.212 204.114 374.176 204.114 374.176V374.14C204.023 373.883 203.273 372.246 198.226 366.491C192.651 360.136 180.6 328.036 180.6 328.036C180.6 328.036 169.913 316.557 170.245 312.324C170.577 308.091 168.351 296.828 168.573 284.24C168.795 271.652 192.616 263.302 192.616 263.302C238.511 255.163 227.704 308.106 226.48 312.117C225.256 316.128 231.607 326.963 231.607 326.963C230.71 331.679 235.283 338.981 235.283 338.981C235.283 338.981 236.391 345.442 236.623 347.896C236.631 348.009 236.655 348.121 236.693 348.228C237.429 350.542 243.422 352.638 245.864 353.913C248.423 355.248 256.672 366.954 256.672 366.954C258.46 375.531 231.506 391.697 228.943 390.558Z" fill="#EB5569"/>
<path opacity="0.1" d="M193.523 290.942C193.523 290.942 213.572 312.107 218.805 312.107C224.037 312.107 193.523 290.942 193.523 290.942Z" fill="black"/>
<path d="M228.942 390.558C226.379 389.44 221.7 390.11 213.683 387.661C205.665 385.212 204.114 374.176 204.114 374.176V374.141C209.427 370.613 222.884 360.65 228.187 357.007C231.919 354.452 234.966 350.698 236.749 348.208C237.484 350.521 243.477 352.618 245.92 353.893C248.478 355.228 256.727 366.934 256.727 366.934C258.46 375.531 231.506 391.697 228.942 390.558Z" fill="#FF748E"/>
<g opacity="0.1">
<path opacity="0.1" d="M155.851 194.455C155.876 194.495 155.912 194.531 155.942 194.571C156.093 194.379 156.249 194.188 156.41 194.007C156.239 194.174 156.052 194.324 155.851 194.455Z" fill="black"/>
<path opacity="0.1" d="M167.535 217.555C167.747 214.758 169.243 212.294 170.643 209.835C169.726 209.482 168.81 209.124 167.903 208.752C167.989 208.186 168.033 207.615 168.034 207.043C166.619 209.563 165.078 212.042 164.861 214.879C164.604 218.246 166.261 221.43 167.732 224.454C173.393 236.145 176.883 249.822 172.627 262.097C170.779 267.429 167.591 272.176 165.259 277.331C161.184 286.46 159.986 296.615 161.824 306.443C162.978 312.556 165.314 318.598 164.74 324.791C163.733 335.449 154.552 343.381 145.346 348.828C141.584 351.056 137.187 353.097 132.982 352.95C132.592 353.577 132.158 354.175 131.682 354.739C136.965 357.073 143.044 354.447 148.015 351.504C157.226 346.062 166.427 338.15 167.435 327.472C168.009 321.279 165.672 315.236 164.514 309.124C162.675 299.297 163.87 289.143 167.938 280.012C170.255 274.862 173.478 270.11 175.306 264.778C179.562 252.503 176.067 238.826 170.411 227.135C168.946 224.091 167.279 220.921 167.535 217.555Z" fill="black"/>
<path opacity="0.1" d="M236.482 139.925C235.986 139.417 235.454 138.945 234.89 138.514C240.994 146.436 232.181 153.168 231.743 161.695C231.35 169.405 231.994 186.649 223.458 190.509C219.238 192.419 214.71 188.237 210.082 188.136C206.743 188.065 203.691 190.187 201.651 192.827C199.611 195.468 198.357 198.612 196.882 201.606C195.535 204.322 193.987 206.933 192.248 209.417C191.241 210.893 190.063 212.365 188.461 213.196C185.691 214.642 182.322 213.831 179.335 212.894C176.431 211.98 173.554 210.972 170.703 209.87C170.697 210.395 170.654 210.919 170.572 211.437C174.329 212.969 178.142 214.343 182.01 215.559C184.991 216.497 188.36 217.308 191.135 215.862C192.732 215.03 193.89 213.554 194.923 212.077C196.662 209.597 198.209 206.988 199.551 204.272C201.032 201.278 202.281 198.129 204.325 195.488C206.37 192.847 209.417 190.731 212.751 190.802C217.384 190.902 221.912 195.085 226.132 193.175C234.669 189.315 234.019 172.071 234.417 164.36C234.88 155.396 244.63 148.411 236.482 139.925Z" fill="black"/>
</g>
<path opacity="0.1" d="M170.119 210.697C169.691 211.453 169.273 212.208 168.89 212.984C168.744 213.282 168.603 213.589 168.477 213.897C165.838 211.236 159.412 204.912 155.826 202.951C156.698 201.081 157.834 199.347 159.2 197.801C159.2 197.801 167.747 202.321 170.119 210.697Z" fill="black"/>
<path d="M170.356 210.284C168.377 201.319 159.2 196.466 159.2 196.466C157.833 198.011 156.697 199.745 155.826 201.616C159.608 203.687 166.579 210.631 168.89 212.985L170.356 210.284Z" fill="#EB5569"/>
<defs>
<filter id="filter0_d_4_6" x="0.432373" y="0.151703" width="611" height="430.344" filterUnits="userSpaceOnUse" color-interpolation-filters="sRGB">
<feFlood flood-opacity="0" result="BackgroundImageFix"/>
<feColorMatrix in="SourceAlpha" type="matrix" values="0 0 0 0 0 0 0 0 0 0 0 0 0 0 0 0 0 0 127 0" result="hardAlpha"/>
<feOffset dy="4"/>
<feGaussianBlur stdDeviation="16"/>
<feColorMatrix type="matrix" values="0 0 0 0 0.258824 0 0 0 0 0.521569 0 0 0 0 0.956863 0 0 0 0.4 0"/>
<feBlend mode="normal" in2="BackgroundImageFix" result="effect1_dropShadow_4_6"/>
<feBlend mode="normal" in="SourceGraphic" in2="effect1_dropShadow_4_6" result="shape"/>
</filter>
<linearGradient id="paint0_linear_4_6" x1="400.094" y1="67.0723" x2="400.094" y2="57.8101" gradientUnits="userSpaceOnUse">
<stop stop-color="#808080" stop-opacity="0.25"/>
<stop offset="0.54" stop-color="#808080" stop-opacity="0.12"/>
<stop offset="1" stop-color="#808080" stop-opacity="0.1"/>
</linearGradient>
<linearGradient id="paint1_linear_4_6" x1="231082" y1="331857" x2="231082" y2="23155.5" gradientUnits="userSpaceOnUse">
<stop stop-color="#808080" stop-opacity="0.25"/>
<stop offset="0.54" stop-color="#808080" stop-opacity="0.12"/>
<stop offset="1" stop-color="#808080" stop-opacity="0.1"/>
</linearGradient>
</defs>
</svg>
